<svg width="517" height="591" viewBox="0 0 517 591" fill="none" xmlns="http://www.w3.org/2000/svg">
<path d="M258.5 295.5C340.089 295.5 406.214 229.359 406.214 147.75C406.214 66.1412 340.089 0 258.5 0C176.911 0 110.786 66.1412 110.786 147.75C110.786 229.359 176.911 295.5 258.5 295.5ZM361.9 332.438H342.628C317.009 344.211 288.504 350.906 258.5 350.906C228.496 350.906 200.107 344.211 174.372 332.438H155.1C69.4719 332.438 0 401.926 0 487.575V535.594C0 566.183 24.8114 591 55.3929 591H461.607C492.189 591 517 566.183 517 535.594V487.575C517 401.926 447.528 332.438 361.9 332.438Z" fill="#A5A5A5"/>
</svg>
