<?xml version="1.0" encoding="utf-8"?>
<svg viewBox="-55.794 -827.331 1637.862 712.733" xmlns="http://www.w3.org/2000/svg">
  <g id="Layer_x0020_1" transform="matrix(1, 0, 0, 1, -269.905583, -802.155713)">
    <g id="_2169157967696" transform="matrix(1, 0, 0, 1, 102.049278, -632.705505)">
      <path class="fil0" d="M1334.82 1288.18c-21.57,0 -39.94,-4.22 -55.33,-12.59 -15.27,-8.37 -26.93,-20.54 -34.88,-36.54 -7.95,-16 -11.97,-35.41 -11.97,-58.22l0 -93.75 0.69 -0.35c12.5,-6.51 21.95,-15.88 28.56,-28.29 6.52,-12.32 9.73,-27.13 9.73,-44.44l0 -215.43c0,-17.4 -3.21,-32.31 -9.73,-44.53 -6.61,-12.32 -16.06,-21.68 -28.38,-28.11l-0.87 -0.44 0 -117.96 66.26 0 0 575.7c0,12.49 3.1,22.19 9.4,29.1 6.19,6.82 15.06,10.23 26.52,10.23 11.77,0 20.75,-3.41 27.15,-10.23 6.29,-6.91 9.49,-16.62 9.49,-29.1l0 -457.14 66.47 0 0 454.76c0,22.81 -4.02,42.22 -12.08,58.22 -8.05,16 -19.82,28.17 -35.19,36.54 -15.38,8.36 -34.06,12.59 -55.84,12.59z" style="fill: rgb(0, 186, 242); fill-rule: nonzero;"/>
      <path class="fil0" d="M1518.45 931.99l80.41 0c7.02,0 13.11,-1.55 18.17,-4.85 4.95,-3.2 8.88,-7.85 11.55,-14.04 2.78,-6.09 4.13,-13.42 4.13,-21.88l0 -59.56c0,-8.88 -1.34,-16.51 -3.92,-22.81 -2.58,-6.4 -6.5,-11.25 -11.67,-14.55 -5.16,-3.31 -11.25,-4.96 -18.27,-4.96l-80.41 0 0 -63.28 81.03 0c21.15,0 39.32,3.93 54.39,11.67 15.18,7.74 26.63,19.09 34.47,34.06 7.85,14.86 11.77,32.82 11.77,53.77l0 71.95c0,20.64 -3.93,38.19 -11.87,52.84 -8.05,14.56 -19.51,25.7 -34.68,33.34 -15.07,7.75 -33.13,11.56 -54.09,11.56l-81.03 0 0 -63.27zm-33.34 -205.92l66.26 0 0 562.38 -66.26 0 0 -562.38z" style="fill: rgb(0, 186, 242); fill-rule: nonzero;"/>
      <path class="fil1" d="M289.7 1100.29c-19.89,0 -36.75,-3.57 -50.85,-10.7 -14,-7.14 -24.71,-17.57 -32.02,-31.22 -7.32,-13.73 -10.97,-30.33 -10.97,-49.77l0 -19.62 57.01 -0.27 0 18.82c0,11.69 3.21,20.7 9.63,27.21 6.52,6.43 15.53,9.64 27.21,9.64 11.33,0 20.07,-3.21 26.31,-9.55 6.16,-6.33 9.28,-15.34 9.28,-27.03l0 -33.18c0,-8.21 -2.13,-15.17 -6.42,-20.97 -4.28,-5.7 -9.64,-10.52 -16.06,-14.44 -6.52,-3.93 -15.35,-8.57 -26.67,-14.01 -0.54,-0.18 -1.07,-0.35 -1.6,-0.62 -0.54,-0.27 -1.07,-0.54 -1.52,-0.72l-3.39 -1.52c-15.16,-7.32 -27.74,-14.63 -37.82,-21.95 -9.99,-7.32 -18.46,-17.3 -25.33,-29.79 -6.87,-12.58 -10.35,-28.28 -10.35,-47.1l0 -20.87c0,-19 3.66,-35.24 10.88,-48.71 7.23,-13.56 17.84,-23.82 31.75,-30.87 13.92,-7.05 30.78,-10.61 50.4,-10.61 19.36,0 35.86,3.57 49.42,10.61 13.56,7.05 24,17.39 31.13,31.13 7.14,13.64 10.7,30.15 10.7,49.5l0 20.6 -57.27 0.54 0 -19.89c0,-11.77 -2.95,-20.87 -8.75,-27.3 -5.79,-6.33 -14.27,-9.54 -25.24,-9.54 -11.5,0 -20.33,3.03 -26.49,8.92 -6.15,5.89 -9.28,14.27 -9.28,25.07l0 24.62c0,8.3 2.05,15.44 6.16,21.41 4.11,5.89 9.28,10.7 15.52,14.45 6.25,3.75 14.9,8.3 25.87,13.47 1.6,0.71 3.12,1.43 4.55,2.22 1.52,0.81 3.13,1.52 4.91,2.23 0.44,0.36 1.07,0.63 1.69,0.9 0.53,0.27 1.25,0.62 1.96,0.98 14.8,7.14 26.67,13.82 35.77,20.25 9.1,6.33 16.77,15.34 23.1,27.12 6.42,11.77 9.54,27.03 9.54,45.67l0 33.19c0,19.44 -3.57,36.04 -10.79,49.77 -7.22,13.65 -17.84,24.09 -31.66,31.22 -13.82,7.14 -30.6,10.7 -50.31,10.7z" style="fill: rgb(4, 46, 111); fill-rule: nonzero;"/>
      <path class="fil2" d="M469.62 747.67l57.19 0 0 348.69 -57.19 0 0 -348.69zm-65.13 -31.4l187.46 0 0 54.69 -187.46 0 0 -54.69z" style="fill: rgb(4, 46, 111); fill-rule: nonzero;"/>
      <path class="fil2" d="M673 716.27l45.5 0 89.4 380.1 -58.8 0 -53.36 -275.8 -53.09 275.8 -58.8 0 89.13 -380.1zm-30.34 255.45l108.23 0 0 53.53 -108.23 0 0 -53.53z" style="fill: rgb(4, 46, 111); fill-rule: nonzero;"/>
      <polygon class="fil2" points="839.01,716.27 886.12,716.27 982.84,988.67 975.26,997.32 975.26,716.27 1028.53,716.27 1028.53,1096.09 980.7,1096.09 884.78,835.47 892.37,826.81 892.37,1096.09 839.01,1096.09 " style="fill: rgb(4, 46, 111); fill-rule: nonzero;"/>
      <path class="fil2" d="M1115.38 1041.76l58.8 0c8.92,0 15.79,-2.77 20.52,-8.12 4.81,-5.44 7.23,-13.03 7.23,-22.75l0 -209.41c0,-9.73 -2.41,-17.31 -7.23,-22.57 -4.73,-5.35 -11.6,-7.94 -20.52,-7.94l-58.8 0 0 -54.69 61.48 0c17.4,0 32.3,3.21 44.7,9.73 12.31,6.42 21.77,15.79 28.37,28.1 6.52,12.23 9.73,27.13 9.73,44.53l0 215.39c0,17.31 -3.21,32.12 -9.73,44.44 -6.6,12.4 -16.06,21.77 -28.55,28.28 -12.4,6.43 -27.39,9.64 -44.79,9.64l-61.21 0 0 -54.6zm-37.38 -325.49l57.28 0 0 380.1 -57.28 0 0 -380.1z" style="fill: rgb(4, 46, 111); fill-rule: nonzero;"/>
      <path class="fil3" d="M539.4 1288.18c-8.39,0 -15.5,-1.51 -21.44,-4.52 -5.9,-3.01 -10.41,-7.4 -13.5,-13.16 -3.09,-5.79 -4.63,-12.79 -4.63,-20.98l0 -8.28 24.03 -0.11 0 7.93c0,4.93 1.35,8.73 4.06,11.47 2.75,2.71 6.55,4.06 11.47,4.06 4.77,0 8.46,-1.35 11.09,-4.02 2.59,-2.67 3.91,-6.47 3.91,-11.4l0 -13.99c0,-3.46 -0.9,-6.39 -2.71,-8.84 -1.81,-2.4 -4.06,-4.43 -6.77,-6.09 -2.75,-1.65 -6.46,-3.61 -11.24,-5.9 -0.22,-0.07 -0.46,-0.15 -0.68,-0.26 -0.22,-0.11 -0.45,-0.22 -0.63,-0.3l-1.43 -0.64c-6.39,-3.08 -11.7,-6.17 -15.94,-9.25 -4.21,-3.08 -7.79,-7.29 -10.68,-12.56 -2.9,-5.3 -4.36,-11.92 -4.36,-19.86l0 -8.8c0,-8.01 1.55,-14.85 4.59,-20.53 3.05,-5.72 7.52,-10.04 13.38,-13.01 5.87,-2.97 12.97,-4.48 21.24,-4.48 8.17,0 15.12,1.51 20.83,4.48 5.72,2.97 10.12,7.33 13.13,13.12 3.01,5.76 4.51,12.71 4.51,20.87l0 8.69 -24.14 0.22 0 -8.39c0,-4.96 -1.24,-8.79 -3.69,-11.5 -2.44,-2.67 -6.02,-4.02 -10.64,-4.02 -4.84,0 -8.57,1.28 -11.17,3.76 -2.59,2.48 -3.91,6.02 -3.91,10.56l0 10.38c0,3.49 0.87,6.5 2.6,9.02 1.73,2.48 3.91,4.51 6.54,6.09 2.63,1.57 6.29,3.49 10.91,5.68 0.68,0.3 1.32,0.6 1.92,0.93 0.64,0.34 1.32,0.64 2.07,0.94 0.19,0.16 0.46,0.27 0.72,0.38 0.22,0.11 0.53,0.26 0.83,0.41 6.24,3.01 11.24,5.83 15.08,8.54 3.84,2.67 7.07,6.46 9.74,11.43 2.71,4.96 4.02,11.4 4.02,19.26l0 13.99c0,8.2 -1.51,15.19 -4.55,20.98 -3.05,5.76 -7.52,10.15 -13.35,13.16 -5.83,3.01 -12.9,4.52 -21.21,4.52z" style="fill-rule: nonzero;"/>
      <path id="1" class="fil3" d="M615.2 1139.56l24.1 0 0 146.96 -24.1 0 0 -146.96zm-27.45 -13.23l79.01 0 0 23.05 -79.01 0 0 -23.05z" style="fill-rule: nonzero;"/>
      <path id="2" class="fil3" d="M700.91 1126.32l19.18 0 37.68 160.19 -24.78 0 -22.49 -116.24 -22.37 116.24 -24.78 0 37.57 -160.19zm-12.79 107.66l45.62 0 0 22.57 -45.62 0 0 -22.57z" style="fill-rule: nonzero;"/>
      <path id="3" class="fil3" d="M781.87 1195.74l29.22 0c3.01,0 5.61,-0.57 7.82,-1.69 2.18,-1.16 3.87,-2.78 5,-4.85 1.13,-2.1 1.69,-4.67 1.69,-7.67l0 -17.07c0,-3.16 -0.57,-5.9 -1.69,-8.2 -1.13,-2.33 -2.82,-4.06 -5,-5.26 -2.22,-1.17 -4.81,-1.73 -7.82,-1.73l-29.22 0 0 -23.05 27.45 0c8.58,0 15.94,1.43 22.04,4.25 6.1,2.82 10.76,6.99 13.99,12.45 3.24,5.49 4.85,12.03 4.85,19.66l0 18.73c0,7.86 -1.61,14.59 -4.85,20.23 -3.23,5.61 -7.93,9.89 -14.06,12.82 -6.13,2.93 -13.46,4.4 -21.96,4.4l-27.45 0 0 -23.01zm-11.02 -69.53l23.8 0 0 160.31 -23.8 0 0 -160.31zm35.91 87.58l22.37 -5.04 25.57 77.76 -26.13 0 -21.81 -72.73z" style="fill-rule: nonzero;"/>
      <path id="4" class="fil3" d="M889.19 1139.56l24.1 0 0 146.96 -24.1 0 0 -146.96zm-27.45 -13.23l79.01 0 0 23.05 -79.01 0 0 -23.05z" style="fill-rule: nonzero;"/>
      <path id="5" class="fil3" d="M986.33 1288.18c-7.86,0 -14.56,-1.55 -20.16,-4.59 -5.56,-3.05 -9.82,-7.48 -12.71,-13.31 -2.89,-5.83 -4.36,-12.9 -4.36,-21.21l0 -122.74 24.14 0 0 123.6c0,4.55 1.13,8.08 3.43,10.61 2.25,2.48 5.49,3.72 9.67,3.72 4.28,0 7.55,-1.25 9.88,-3.72 2.3,-2.52 3.46,-6.05 3.46,-10.61l0 -123.6 24.21 0 0 122.74c0,8.32 -1.46,15.38 -4.4,21.21 -2.93,5.83 -7.22,10.26 -12.82,13.31 -5.61,3.05 -12.41,4.59 -20.34,4.59z" style="fill-rule: nonzero;"/>
      <path id="6" class="fil3" d="M1053.23 1201.34l29.29 0c2.56,0 4.78,-0.56 6.62,-1.76 1.81,-1.17 3.23,-2.86 4.21,-5.12 1.02,-2.22 1.51,-4.89 1.51,-7.97l0 -21.69c0,-3.24 -0.49,-6.02 -1.43,-8.32 -0.94,-2.33 -2.37,-4.1 -4.25,-5.3 -1.88,-1.2 -4.1,-1.81 -6.66,-1.81l-29.29 0 0 -23.05 29.51 0c7.71,0 14.33,1.43 19.82,4.25 5.53,2.82 9.7,6.96 12.56,12.41 2.86,5.41 4.28,11.96 4.28,19.59l0 26.22c0,7.52 -1.43,13.91 -4.32,19.25 -2.93,5.3 -7.11,9.36 -12.64,12.14 -5.49,2.82 -12.07,4.21 -19.71,4.21l-29.51 0 0 -23.05zm-12.14 -75.02l24.14 0 0 160.19 -24.14 0 0 -160.19z" style="fill-rule: nonzero;"/>
      <path id="7" class="fil3" d="M1175.37 1288.18c-8.39,0 -15.5,-1.51 -21.44,-4.52 -5.9,-3.01 -10.41,-7.4 -13.5,-13.16 -3.09,-5.79 -4.63,-12.79 -4.63,-20.98l0 -8.28 24.03 -0.11 0 7.93c0,4.93 1.35,8.73 4.06,11.47 2.75,2.71 6.55,4.06 11.47,4.06 4.77,0 8.46,-1.35 11.09,-4.02 2.59,-2.67 3.91,-6.47 3.91,-11.4l0 -13.99c0,-3.46 -0.9,-6.39 -2.71,-8.84 -1.81,-2.4 -4.06,-4.43 -6.77,-6.09 -2.75,-1.65 -6.46,-3.61 -11.24,-5.9 -0.22,-0.07 -0.46,-0.15 -0.68,-0.26 -0.22,-0.11 -0.45,-0.22 -0.63,-0.3l-1.43 -0.64c-6.39,-3.08 -11.7,-6.17 -15.94,-9.25 -4.21,-3.08 -7.79,-7.29 -10.68,-12.56 -2.9,-5.3 -4.36,-11.92 -4.36,-19.86l0 -8.8c0,-8.01 1.55,-14.85 4.59,-20.53 3.05,-5.72 7.52,-10.04 13.38,-13.01 5.87,-2.97 12.97,-4.48 21.24,-4.48 8.17,0 15.12,1.51 20.83,4.48 5.72,2.97 10.12,7.33 13.13,13.12 3.01,5.76 4.51,12.71 4.51,20.87l0 8.69 -24.14 0.22 0 -8.39c0,-4.96 -1.24,-8.79 -3.69,-11.5 -2.44,-2.67 -6.02,-4.02 -10.64,-4.02 -4.84,0 -8.57,1.28 -11.17,3.76 -2.59,2.48 -3.91,6.02 -3.91,10.56l0 10.38c0,3.49 0.87,6.5 2.6,9.02 1.73,2.48 3.91,4.51 6.54,6.09 2.63,1.57 6.29,3.49 10.91,5.68 0.68,0.3 1.32,0.6 1.92,0.93 0.64,0.34 1.32,0.64 2.07,0.94 0.19,0.16 0.46,0.27 0.72,0.38 0.22,0.11 0.53,0.26 0.83,0.41 6.24,3.01 11.24,5.83 15.08,8.54 3.84,2.67 7.07,6.46 9.74,11.43 2.71,4.96 4.02,11.4 4.02,19.26l0 13.99c0,8.2 -1.51,15.19 -4.55,20.98 -3.05,5.76 -7.52,10.15 -13.35,13.16 -5.83,3.01 -12.9,4.52 -21.21,4.52z" style="fill-rule: nonzero;"/>
    </g>
    <rect class="fil4" width="1637.862" height="687.558" style="fill: none;" x="214.112"/>
  </g>
</svg>