<svg width="219" height="38" viewBox="0 0 219 38" fill="none" xmlns="http://www.w3.org/2000/svg">
<path d="M1.31656 6.33544C0.579121 5.95799 0.28729 5.05419 0.664741 4.31675C1.04219 3.5793 1.94599 3.28747 2.68344 3.66492L1.31656 6.33544ZM217.887 3.55097C218.687 3.76471 219.163 4.58682 218.949 5.3872L215.466 18.4301C215.252 19.2305 214.43 19.7061 213.63 19.4923C212.829 19.2786 212.354 18.4565 212.568 17.6561L215.664 6.06238L204.07 2.96623C203.27 2.75249 202.794 1.93038 203.008 1.13C203.222 0.329624 204.044 -0.145939 204.844 0.0678062L217.887 3.55097ZM5.30658 4.95953C6.05234 5.32028 6.36445 6.21728 6.0037 6.96303C5.64295 7.70879 4.74595 8.0209 4.00019 7.66015L5.30658 4.95953ZM9.42244 10.2109C8.66943 9.8655 8.33897 8.9751 8.68433 8.22209C9.02969 7.46909 9.92009 7.13862 10.6731 7.48399L9.42244 10.2109ZM16.0956 9.91513C16.8543 10.2478 17.1996 11.1325 16.867 11.8912C16.5343 12.6499 15.6496 12.9953 14.8909 12.6626L16.0956 9.91513ZM20.3797 15.018C19.6158 14.6972 19.2567 13.818 19.5774 13.0542C19.8982 12.2904 20.7774 11.9312 21.5412 12.252L20.3797 15.018ZM27.02 14.5034C27.7887 14.8124 28.1613 15.686 27.8523 16.4547C27.5433 17.2233 26.6697 17.5959 25.9011 17.287L27.02 14.5034ZM31.4898 19.4833C30.7164 19.1863 30.3302 18.3187 30.6272 17.5453C30.9242 16.7719 31.7919 16.3857 32.5652 16.6827L31.4898 19.4833ZM38.1053 18.7602C38.8833 19.0448 39.2832 19.9063 38.9985 20.6843C38.7138 21.4622 37.8524 21.8621 37.0744 21.5775L38.1053 18.7602ZM42.7142 23.5888C41.9316 23.317 41.5175 22.4623 41.7893 21.6797C42.0611 20.8972 42.9158 20.4831 43.6984 20.7548L42.7142 23.5888ZM49.3276 22.6556C50.1147 22.9138 50.5436 23.7612 50.2855 24.5483C50.0273 25.3355 49.1799 25.7644 48.3927 25.5062L49.3276 22.6556ZM54.0901 27.3176C53.2983 27.0739 52.854 26.2345 53.0977 25.4427C53.3414 24.651 54.1809 24.2067 54.9726 24.4504L54.0901 27.3176ZM60.6556 26.1397C61.452 26.3679 61.9126 27.1984 61.6844 27.9948C61.4562 28.7912 60.6256 29.2518 59.8293 29.0236L60.6556 26.1397ZM65.6067 30.6145C64.8057 30.4031 64.3278 29.5823 64.5392 28.7814C64.7507 27.9804 65.5714 27.5025 66.3724 27.7139L65.6067 30.6145ZM72.1199 29.1628C72.9255 29.356 73.4218 30.1658 73.2286 30.9713C73.0353 31.7769 72.2256 32.2733 71.42 32.08L72.1199 29.1628ZM77.2658 33.4077C76.4557 33.2343 75.9396 32.4371 76.1129 31.627C76.2863 30.8169 77.0836 30.3008 77.8937 30.4742L77.2658 33.4077ZM83.6967 31.6361C84.5112 31.7876 85.0486 32.5707 84.8971 33.3851C84.7456 34.1996 83.9625 34.737 83.148 34.5855L83.6967 31.6361ZM89.0659 35.5973C88.2473 35.47 87.6869 34.7032 87.8142 33.8846C87.9415 33.066 88.7082 32.5056 89.5268 32.6329L89.0659 35.5973ZM95.3795 33.4462C96.2018 33.5464 96.7872 34.2943 96.6869 35.1167C96.5867 35.939 95.8388 36.5244 95.0164 36.4241L95.3795 33.4462ZM100.995 37.0437C100.17 36.9738 99.5574 36.2479 99.6273 35.4224C99.6973 34.597 100.423 33.9845 101.249 34.0544L100.995 37.0437ZM107.134 34.4329C107.961 34.4686 108.603 35.1685 108.568 35.9961C108.532 36.8238 107.832 37.4658 107.004 37.4301L107.134 34.4329ZM113.035 37.5513C112.207 37.5546 111.533 36.8856 111.529 36.0572C111.526 35.2288 112.195 34.5546 113.024 34.5514L113.035 37.5513ZM118.894 34.3838C119.721 34.3416 120.426 34.978 120.468 35.8054C120.51 36.6328 119.874 37.3377 119.047 37.3799L118.894 34.3838ZM125.038 36.9524C124.213 37.0276 123.483 36.4198 123.408 35.5948C123.333 34.7698 123.941 34.04 124.766 33.9648L125.038 36.9524ZM130.622 33.3204C131.444 33.2149 132.195 33.7954 132.301 34.6171C132.406 35.4388 131.826 36.1904 131.004 36.296L130.622 33.3204ZM136.94 35.4292C136.123 35.5627 135.352 35.0081 135.218 34.1904C135.085 33.3728 135.639 32.6019 136.457 32.4684L136.94 35.4292ZM142.264 31.4253C143.077 31.2661 143.865 31.7962 144.024 32.6092C144.183 33.4222 143.653 34.2103 142.84 34.3694L142.264 31.4253ZM148.699 33.132C147.891 33.3149 147.088 32.8082 146.905 32.0002C146.722 31.1922 147.229 30.389 148.037 30.2061L148.699 33.132ZM153.781 28.8218C154.584 28.6168 155.4 29.1013 155.605 29.904C155.81 30.7067 155.326 31.5235 154.523 31.7285L153.781 28.8218ZM160.306 30.1717C159.508 30.3972 158.679 29.9338 158.454 29.1367C158.228 28.3396 158.692 27.5105 159.489 27.285L160.306 30.1717ZM165.152 25.6078C165.943 25.363 166.783 25.8062 167.028 26.5977C167.273 27.3891 166.83 28.2291 166.038 28.4739L165.152 25.6078ZM171.735 26.6397C170.95 26.9025 170.1 26.4787 169.837 25.6931C169.574 24.9075 169.998 24.0575 170.783 23.7947L171.735 26.6397ZM176.374 21.8555C177.154 21.5755 178.013 21.9806 178.293 22.7602C178.572 23.5399 178.167 24.399 177.388 24.6789L176.374 21.8555ZM182.986 22.6016C182.213 22.8978 181.345 22.5109 181.049 21.7372C180.753 20.9636 181.14 20.0963 181.913 19.8L182.986 22.6016ZM187.425 17.6242C188.193 17.3122 189.068 17.6814 189.38 18.4488C189.692 19.2163 189.322 20.0913 188.555 20.4033L187.425 17.6242ZM194.069 18.097C193.308 18.4243 192.426 18.0726 192.099 17.3115C191.772 16.5505 192.123 15.6682 192.884 15.341L194.069 18.097ZM198.286 12.9547C199.04 12.6124 199.929 12.9465 200.272 13.7009C200.614 14.4553 200.28 15.3444 199.525 15.6867L198.286 12.9547ZM204.943 13.1623C204.196 13.5198 203.3 13.2039 202.943 12.4566C202.585 11.7093 202.901 10.8136 203.649 10.4561L204.943 13.1623ZM208.976 7.8363C209.716 7.46247 210.618 7.75873 210.992 8.49802C211.366 9.23731 211.069 10.1397 210.33 10.5135L208.976 7.8363ZM215.635 7.74651C214.906 8.14002 213.996 7.86804 213.602 7.13904C213.209 6.41004 213.481 5.50007 214.21 5.10656L215.635 7.74651ZM2 5.00018C2.68344 3.66492 2.68341 3.66491 2.68339 3.6649C2.68339 3.6649 2.68337 3.66489 2.68337 3.66489C2.68336 3.66489 2.68337 3.66489 2.68339 3.6649C2.68343 3.66492 2.68353 3.66497 2.68368 3.66505C2.68399 3.66521 2.68453 3.66548 2.68529 3.66587C2.68681 3.66665 2.68924 3.66789 2.69256 3.66959C2.69921 3.67298 2.70946 3.6782 2.72326 3.68522C2.75087 3.69926 2.79273 3.7205 2.84858 3.74871C2.96026 3.80514 3.12787 3.88944 3.3493 3.99978C3.79215 4.22046 4.45022 4.54528 5.30658 4.95953L4.00019 7.66015C3.1328 7.24056 2.46417 6.91055 2.01127 6.68486C1.78482 6.57202 1.61229 6.48525 1.4958 6.4264C1.43756 6.39697 1.39332 6.37453 1.36336 6.35929C1.34838 6.35167 1.33697 6.34586 1.32916 6.34187C1.32525 6.33988 1.32225 6.33834 1.32015 6.33727C1.3191 6.33673 1.31827 6.33631 1.31768 6.33601C1.31738 6.33586 1.31714 6.33573 1.31695 6.33564C1.31686 6.33559 1.31678 6.33555 1.31671 6.33552C1.31668 6.3355 1.31664 6.33548 1.31663 6.33547C1.31659 6.33545 1.31656 6.33544 2 5.00018ZM10.6731 7.48399C12.2737 8.21809 14.0891 9.03532 16.0956 9.91513L14.8909 12.6626C12.8682 11.7757 11.0374 10.9516 9.42244 10.2109L10.6731 7.48399ZM21.5412 12.252C23.2746 12.9799 25.1042 13.7333 27.02 14.5034L25.9011 17.287C23.9703 16.5108 22.1265 15.7516 20.3797 15.018L21.5412 12.252ZM32.5652 16.6827C34.3564 17.3705 36.2052 18.0649 38.1053 18.7602L37.0744 21.5775C35.1588 20.8765 33.2951 20.1766 31.4898 19.4833L32.5652 16.6827ZM43.6984 20.7548C45.5382 21.3938 47.4163 22.0288 49.3276 22.6556L48.3927 25.5062C46.4643 24.8738 44.5697 24.2332 42.7142 23.5888L43.6984 20.7548ZM54.9726 24.4504C56.8431 25.0261 58.7389 25.5904 60.6556 26.1397L59.8293 29.0236C57.8929 28.4688 55.9784 27.8988 54.0901 27.3176L54.9726 24.4504ZM66.3724 27.7139C68.2739 28.2159 70.1911 28.7 72.1199 29.1628L71.42 32.08C69.4682 31.6117 67.5291 31.1221 65.6067 30.6145L66.3724 27.7139ZM77.8937 30.4742C79.822 30.8869 81.7577 31.2754 83.6967 31.6361L83.148 34.5855C81.1813 34.2196 79.2192 33.8259 77.2658 33.4077L77.8937 30.4742ZM89.5268 32.6329C91.4798 32.9365 93.4319 33.2087 95.3795 33.4462L95.0164 36.4241C93.0346 36.1825 91.0497 35.9057 89.0659 35.5973L89.5268 32.6329ZM101.249 34.0544C103.221 34.2215 105.184 34.3489 107.134 34.4329L107.004 37.4301C105.011 37.3442 103.007 37.2141 100.995 37.0437L101.249 34.0544ZM113.024 34.5514C114.006 34.5475 114.983 34.5314 115.955 34.5025L116.045 37.5012C115.046 37.5309 114.043 37.5474 113.035 37.5513L113.024 34.5514ZM115.955 34.5025C116.935 34.4735 117.914 34.4337 118.894 34.3838L119.047 37.3799C118.046 37.4309 117.045 37.4715 116.045 37.5012L115.955 34.5025ZM124.766 33.9648C126.722 33.7864 128.675 33.5705 130.622 33.3204L131.004 36.296C129.022 36.5506 127.033 36.7706 125.038 36.9524L124.766 33.9648ZM136.457 32.4684C138.403 32.1508 140.34 31.8019 142.264 31.4253L142.84 34.3694C140.887 34.7518 138.919 35.1063 136.94 35.4292L136.457 32.4684ZM148.037 30.2061C149.969 29.7686 151.885 29.3059 153.781 28.8218L154.523 31.7285C152.602 32.2191 150.659 32.6882 148.699 33.132L148.037 30.2061ZM159.489 27.285C161.403 26.7434 163.292 26.183 165.152 25.6078L166.038 28.4739C164.156 29.0559 162.244 29.6233 160.306 30.1717L159.489 27.285ZM170.783 23.7947C172.685 23.1584 174.55 22.5103 176.374 21.8555L177.388 24.6789C175.544 25.3409 173.659 25.9961 171.735 26.6397L170.783 23.7947ZM181.913 19.8C183.808 19.0746 185.647 18.3472 187.425 17.6242L188.555 20.4033C186.758 21.1337 184.9 21.8686 182.986 22.6016L181.913 19.8ZM192.884 15.341C194.777 14.5273 196.58 13.7286 198.286 12.9547L199.525 15.6867C197.802 16.4684 195.981 17.2752 194.069 18.097L192.884 15.341ZM203.649 10.4561C205.625 9.51058 207.408 8.62944 208.976 7.8363L210.33 10.5135C208.743 11.316 206.94 12.2068 204.943 13.1623L203.649 10.4561ZM214.21 5.10656C215.042 4.65737 215.679 4.30449 216.108 4.06474C216.322 3.94486 216.484 3.85328 216.591 3.79208C216.645 3.76148 216.685 3.73848 216.711 3.72334C216.725 3.71577 216.734 3.71017 216.741 3.70656C216.744 3.70476 216.746 3.70345 216.747 3.70266C216.748 3.70226 216.749 3.70198 216.749 3.70183C216.749 3.70176 216.749 3.70172 216.749 3.70171C216.749 3.7017 216.749 3.7017 216.749 3.70171C216.749 3.70172 216.749 3.70173 216.749 3.70174C216.749 3.70175 216.749 3.70177 217.5 5.00018C218.251 6.29859 218.251 6.29861 218.251 6.29864C218.251 6.29865 218.251 6.29867 218.251 6.29869C218.251 6.29874 218.251 6.29879 218.251 6.29885C218.25 6.29896 218.25 6.29911 218.25 6.29929C218.249 6.29965 218.248 6.30014 218.247 6.30075C218.245 6.30197 218.242 6.3037 218.238 6.30593C218.231 6.31039 218.219 6.31685 218.205 6.32528C218.175 6.34213 218.132 6.36687 218.075 6.39921C217.962 6.46389 217.794 6.55902 217.573 6.68248C217.132 6.9294 216.481 7.2897 215.635 7.74651L214.21 5.10656Z" fill="black"/>
</svg>
