<svg width="219" height="39" viewBox="0 0 219 39" fill="none" xmlns="http://www.w3.org/2000/svg">
<path d="M1.31656 31.7168C0.579121 32.0943 0.28729 32.9981 0.664741 33.7355C1.04219 34.4729 1.94599 34.7648 2.68344 34.3873L1.31656 31.7168ZM217.887 34.5013C218.687 34.2875 219.163 33.4654 218.949 32.665L215.466 19.6221C215.252 18.8218 214.43 18.3462 213.63 18.5599C212.829 18.7737 212.354 19.5958 212.568 20.3962L215.664 31.9899L204.07 35.086C203.27 35.2998 202.794 36.1219 203.008 36.9222C203.222 37.7226 204.044 38.1982 204.844 37.9844L217.887 34.5013ZM5.30658 33.0927C6.05234 32.732 6.36445 31.835 6.0037 31.0892C5.64295 30.3435 4.74595 30.0313 4.00019 30.3921L5.30658 33.0927ZM9.42244 27.8414C8.66943 28.1867 8.33897 29.0771 8.68433 29.8302C9.02969 30.5832 9.92009 30.9136 10.6731 30.5683L9.42244 27.8414ZM16.0956 28.1371C16.8543 27.8044 17.1996 26.9197 16.867 26.161C16.5343 25.4023 15.6496 25.057 14.8909 25.3896L16.0956 28.1371ZM20.3797 23.0343C19.6158 23.355 19.2567 24.2342 19.5774 24.998C19.8982 25.7618 20.7774 26.121 21.5412 25.8003L20.3797 23.0343ZM27.02 23.5488C27.7887 23.2398 28.1613 22.3662 27.8523 21.5976C27.5433 20.8289 26.6697 20.4563 25.9011 20.7653L27.02 23.5488ZM31.4898 18.5689C30.7164 18.8659 30.3302 19.7336 30.6272 20.507C30.9242 21.2803 31.7919 21.6665 32.5652 21.3695L31.4898 18.5689ZM38.1053 19.2921C38.8833 19.0074 39.2832 18.146 38.9985 17.368C38.7138 16.59 37.8524 16.1901 37.0744 16.4748L38.1053 19.2921ZM42.7142 14.4634C41.9316 14.7352 41.5175 15.5899 41.7893 16.3725C42.0611 17.1551 42.9158 17.5692 43.6984 17.2974L42.7142 14.4634ZM49.3276 15.3966C50.1147 15.1385 50.5436 14.2911 50.2855 13.5039C50.0273 12.7167 49.1799 12.2879 48.3927 12.546L49.3276 15.3966ZM54.0901 10.7346C53.2983 10.9783 52.854 11.8177 53.0977 12.6095C53.3414 13.4013 54.1809 13.8456 54.9726 13.6019L54.0901 10.7346ZM60.6556 11.9126C61.452 11.6844 61.9126 10.8538 61.6844 10.0574C61.4562 9.26105 60.6256 8.80045 59.8293 9.02864L60.6556 11.9126ZM65.6067 7.4377C64.8057 7.64916 64.3278 8.4699 64.5392 9.27089C64.7507 10.0719 65.5714 10.5498 66.3724 10.3383L65.6067 7.4377ZM72.1199 8.88948C72.9255 8.69621 73.4218 7.88649 73.2286 7.08092C73.0353 6.27536 72.2256 5.77899 71.42 5.97226L72.1199 8.88948ZM77.2658 4.64451C76.4557 4.8179 75.9396 5.61516 76.1129 6.42524C76.2863 7.23532 77.0836 7.75145 77.8937 7.57806L77.2658 4.64451ZM83.6967 6.41616C84.5112 6.26464 85.0486 5.48157 84.8971 4.66712C84.7456 3.85266 83.9625 3.31525 83.148 3.46676L83.6967 6.41616ZM89.0659 2.45497C88.2473 2.58225 87.6869 3.34902 87.8142 4.16761C87.9415 4.98621 88.7082 5.54663 89.5268 5.41936L89.0659 2.45497ZM95.3795 4.60609C96.2018 4.50584 96.7872 3.75793 96.6869 2.93559C96.5867 2.11325 95.8388 1.52788 95.0164 1.62813L95.3795 4.60609ZM100.995 1.00854C100.17 1.07847 99.5574 1.80434 99.6273 2.62981C99.6973 3.45528 100.423 4.06777 101.249 3.99783L100.995 1.00854ZM107.134 3.61934C107.961 3.58366 108.603 2.88378 108.568 2.05612C108.532 1.22846 107.832 0.58644 107.004 0.622123L107.134 3.61934ZM113.035 0.500915C112.207 0.497692 111.533 1.16665 111.529 1.99507C111.526 2.82349 112.195 3.49767 113.024 3.50089L113.035 0.500915ZM118.894 3.66849C119.721 3.71069 120.426 3.0742 120.468 2.24685C120.51 1.41949 119.874 0.714583 119.047 0.672384L118.894 3.66849ZM125.038 1.09983C124.213 1.0246 123.483 1.63241 123.408 2.45742C123.333 3.28242 123.941 4.0122 124.766 4.08743L125.038 1.09983ZM130.622 4.73183C131.444 4.83737 132.195 4.25684 132.301 3.43516C132.406 2.61349 131.826 1.86182 131.004 1.75627L130.622 4.73183ZM136.94 2.623C136.123 2.48956 135.352 3.04419 135.218 3.8618C135.085 4.67941 135.639 5.45039 136.457 5.58383L136.94 2.623ZM142.264 6.62696C143.077 6.78611 143.865 6.25606 144.024 5.44307C144.183 4.63007 143.653 3.84199 142.84 3.68284L142.264 6.62696ZM148.699 4.92023C147.891 4.73732 147.088 5.24405 146.905 6.05203C146.722 6.86001 147.229 7.66329 148.037 7.84619L148.699 4.92023ZM153.781 9.23046C154.584 9.43543 155.4 8.95091 155.605 8.14824C155.81 7.34557 155.326 6.52871 154.523 6.32374L153.781 9.23046ZM160.306 7.88057C159.508 7.65504 158.679 8.11842 158.454 8.91555C158.228 9.71269 158.692 10.5417 159.489 10.7673L160.306 7.88057ZM165.152 12.4445C165.943 12.6892 166.783 12.246 167.028 11.4546C167.273 10.6631 166.83 9.82311 166.038 9.57836L165.152 12.4445ZM171.735 11.4126C170.95 11.1497 170.1 11.5735 169.837 12.3591C169.574 13.1447 169.998 13.9947 170.783 14.2576L171.735 11.4126ZM176.374 16.1968C177.154 16.4768 178.013 16.0717 178.293 15.292C178.572 14.5123 178.167 13.6533 177.388 13.3733L176.374 16.1968ZM182.986 15.4507C182.213 15.1544 181.345 15.5414 181.049 16.315C180.753 17.0887 181.14 17.956 181.913 18.2523L182.986 15.4507ZM187.425 20.4281C188.193 20.7401 189.068 20.3709 189.38 19.6034C189.692 18.836 189.322 17.9609 188.555 17.649L187.425 20.4281ZM194.069 19.9552C193.308 19.628 192.426 19.9797 192.099 20.7407C191.772 21.5018 192.123 22.384 192.884 22.7112L194.069 19.9552ZM198.286 25.0976C199.04 25.4398 199.929 25.1057 200.272 24.3513C200.614 23.5969 200.28 22.7079 199.525 22.3656L198.286 25.0976ZM204.943 24.89C204.196 24.5324 203.3 24.8484 202.943 25.5957C202.585 26.343 202.901 27.2386 203.649 27.5962L204.943 24.89ZM208.976 30.216C209.716 30.5898 210.618 30.2935 210.992 29.5542C211.366 28.8149 211.069 27.9126 210.33 27.5388L208.976 30.216ZM215.635 30.3057C214.906 29.9122 213.996 30.1842 213.602 30.9132C213.209 31.6422 213.481 32.5522 214.21 32.9457L215.635 30.3057ZM2 33.0521C2.68344 34.3873 2.68341 34.3873 2.68339 34.3873C2.68339 34.3873 2.68337 34.3874 2.68337 34.3874C2.68336 34.3874 2.68337 34.3874 2.68339 34.3873C2.68343 34.3873 2.68353 34.3873 2.68368 34.3872C2.68399 34.387 2.68453 34.3868 2.68529 34.3864C2.68681 34.3856 2.68924 34.3844 2.69256 34.3827C2.69921 34.3793 2.70946 34.3741 2.72326 34.367C2.75087 34.353 2.79273 34.3317 2.84858 34.3035C2.96026 34.2471 3.12787 34.1628 3.3493 34.0525C3.79215 33.8318 4.45022 33.507 5.30658 33.0927L4.00019 30.3921C3.1328 30.8117 2.46417 31.1417 2.01127 31.3674C1.78482 31.4802 1.61229 31.567 1.4958 31.6258C1.43756 31.6553 1.39332 31.6777 1.36336 31.693C1.34838 31.7006 1.33697 31.7064 1.32916 31.7104C1.32525 31.7124 1.32225 31.7139 1.32015 31.715C1.3191 31.7155 1.31827 31.7159 1.31768 31.7162C1.31738 31.7164 1.31714 31.7165 1.31695 31.7166C1.31686 31.7167 1.31678 31.7167 1.31671 31.7167C1.31668 31.7167 1.31664 31.7168 1.31663 31.7168C1.31659 31.7168 1.31656 31.7168 2 33.0521ZM10.6731 30.5683C12.2737 29.8342 14.0891 29.0169 16.0956 28.1371L14.8909 25.3896C12.8682 26.2766 11.0374 27.1007 9.42244 27.8414L10.6731 30.5683ZM21.5412 25.8003C23.2746 25.0723 25.1042 24.319 27.02 23.5488L25.9011 20.7653C23.9703 21.5414 22.1265 22.3007 20.3797 23.0343L21.5412 25.8003ZM32.5652 21.3695C34.3564 20.6817 36.2052 19.9874 38.1053 19.2921L37.0744 16.4748C35.1588 17.1757 33.2951 17.8757 31.4898 18.5689L32.5652 21.3695ZM43.6984 17.2974C45.5382 16.6585 47.4163 16.0234 49.3276 15.3966L48.3927 12.546C46.4643 13.1784 44.5697 13.8191 42.7142 14.4634L43.6984 17.2974ZM54.9726 13.6019C56.8431 13.0262 58.7389 12.4618 60.6556 11.9126L59.8293 9.02864C57.8929 9.58348 55.9784 10.1534 54.0901 10.7346L54.9726 13.6019ZM66.3724 10.3383C68.2739 9.83634 70.1911 9.35223 72.1199 8.88948L71.42 5.97226C69.4682 6.44053 67.5291 6.93019 65.6067 7.4377L66.3724 10.3383ZM77.8937 7.57806C79.822 7.1653 81.7577 6.77689 83.6967 6.41616L83.148 3.46676C81.1813 3.83265 79.2192 4.22638 77.2658 4.64451L77.8937 7.57806ZM89.5268 5.41936C91.4798 5.11571 93.4319 4.8435 95.3795 4.60609L95.0164 1.62813C93.0346 1.86973 91.0497 2.14653 89.0659 2.45497L89.5268 5.41936ZM101.249 3.99783C103.221 3.83073 105.184 3.70339 107.134 3.61934L107.004 0.622123C105.011 0.708053 103.007 0.838133 100.995 1.00854L101.249 3.99783ZM113.024 3.50089C114.006 3.50471 114.983 3.52083 115.955 3.54971L116.045 0.551029C115.046 0.521365 114.043 0.504835 113.035 0.500915L113.024 3.50089ZM115.955 3.54971C116.935 3.57879 117.914 3.61852 118.894 3.66849L119.047 0.672384C118.046 0.621358 117.045 0.580757 116.045 0.551029L115.955 3.54971ZM124.766 4.08743C126.722 4.26581 128.675 4.48173 130.622 4.73183L131.004 1.75627C129.022 1.50168 127.033 1.28168 125.038 1.09983L124.766 4.08743ZM136.457 5.58383C138.403 5.90147 140.34 6.25035 142.264 6.62696L142.84 3.68284C140.887 3.30042 138.919 2.94593 136.94 2.623L136.457 5.58383ZM148.037 7.84619C149.969 8.28369 151.885 8.74635 153.781 9.23046L154.523 6.32374C152.602 5.83312 150.659 5.36401 148.699 4.92023L148.037 7.84619ZM159.489 10.7673C161.403 11.3088 163.292 11.8693 165.152 12.4445L166.038 9.57836C164.156 8.99633 162.244 8.42899 160.306 7.88057L159.489 10.7673ZM170.783 14.2576C172.685 14.8939 174.55 15.5419 176.374 16.1968L177.388 13.3733C175.544 12.7113 173.659 12.0561 171.735 11.4126L170.783 14.2576ZM181.913 18.2523C183.808 18.9777 185.647 19.7051 187.425 20.4281L188.555 17.649C186.758 16.9186 184.9 16.1837 182.986 15.4507L181.913 18.2523ZM192.884 22.7112C194.777 23.5249 196.58 24.3236 198.286 25.0976L199.525 22.3656C197.802 21.5838 195.981 20.7771 194.069 19.9552L192.884 22.7112ZM203.649 27.5962C205.625 28.5417 207.408 29.4228 208.976 30.216L210.33 27.5388C208.743 26.7363 206.94 25.8454 204.943 24.89L203.649 27.5962ZM214.21 32.9457C215.042 33.3949 215.679 33.7478 216.108 33.9875C216.322 34.1074 216.484 34.199 216.591 34.2602C216.645 34.2908 216.685 34.3138 216.711 34.3289C216.725 34.3365 216.734 34.3421 216.741 34.3457C216.744 34.3475 216.746 34.3488 216.747 34.3496C216.748 34.35 216.749 34.3503 216.749 34.3504C216.749 34.3505 216.749 34.3505 216.749 34.3505C216.749 34.3505 216.749 34.3505 216.749 34.3505C216.749 34.3505 216.749 34.3505 216.749 34.3505C216.749 34.3505 216.749 34.3505 217.5 33.0521C218.251 31.7537 218.251 31.7536 218.251 31.7536C218.251 31.7536 218.251 31.7536 218.251 31.7536C218.251 31.7535 218.251 31.7535 218.251 31.7534C218.25 31.7533 218.25 31.7531 218.25 31.753C218.249 31.7526 218.248 31.7521 218.247 31.7515C218.245 31.7503 218.242 31.7485 218.238 31.7463C218.231 31.7419 218.219 31.7354 218.205 31.727C218.175 31.7101 218.132 31.6854 218.075 31.653C217.962 31.5884 217.794 31.4932 217.573 31.3698C217.132 31.1228 216.481 30.7625 215.635 30.3057L214.21 32.9457Z" fill="black"/>
</svg>
