<svg width="99" height="111" viewBox="0 0 99 111" fill="none" xmlns="http://www.w3.org/2000/svg">
<path d="M49.5 110.5C76.562 110.5 98.5 88.562 98.5 61.5C98.5 34.438 76.562 12.5 49.5 12.5C22.438 12.5 0.5 34.438 0.5 61.5C0.5 88.562 22.438 110.5 49.5 110.5Z" fill="white" stroke="#FF613D"/>
<path d="M60.375 46.875H54.3333C54.3333 44.1861 52.1659 42 49.5 42C46.8341 42 44.6667 44.1861 44.6667 46.875H38.625C36.6237 46.875 35 48.5127 35 50.5312V77.3438C35 79.3623 36.6237 81 38.625 81H60.375C62.3763 81 64 79.3623 64 77.3438V50.5312C64 48.5127 62.3763 46.875 60.375 46.875ZM42.25 74.2969C41.2456 74.2969 40.4375 73.4818 40.4375 72.4688C40.4375 71.4557 41.2456 70.6406 42.25 70.6406C43.2544 70.6406 44.0625 71.4557 44.0625 72.4688C44.0625 73.4818 43.2544 74.2969 42.25 74.2969ZM42.25 66.9844C41.2456 66.9844 40.4375 66.1693 40.4375 65.1562C40.4375 64.1432 41.2456 63.3281 42.25 63.3281C43.2544 63.3281 44.0625 64.1432 44.0625 65.1562C44.0625 66.1693 43.2544 66.9844 42.25 66.9844ZM42.25 59.6719C41.2456 59.6719 40.4375 58.8568 40.4375 57.8438C40.4375 56.8307 41.2456 56.0156 42.25 56.0156C43.2544 56.0156 44.0625 56.8307 44.0625 57.8438C44.0625 58.8568 43.2544 59.6719 42.25 59.6719ZM49.5 45.0469C50.5044 45.0469 51.3125 45.8619 51.3125 46.875C51.3125 47.8881 50.5044 48.7031 49.5 48.7031C48.4956 48.7031 47.6875 47.8881 47.6875 46.875C47.6875 45.8619 48.4956 45.0469 49.5 45.0469ZM59.1667 73.0781C59.1667 73.4133 58.8948 73.6875 58.5625 73.6875H47.6875C47.3552 73.6875 47.0833 73.4133 47.0833 73.0781V71.8594C47.0833 71.5242 47.3552 71.25 47.6875 71.25H58.5625C58.8948 71.25 59.1667 71.5242 59.1667 71.8594V73.0781ZM59.1667 65.7656C59.1667 66.1008 58.8948 66.375 58.5625 66.375H47.6875C47.3552 66.375 47.0833 66.1008 47.0833 65.7656V64.5469C47.0833 64.2117 47.3552 63.9375 47.6875 63.9375H58.5625C58.8948 63.9375 59.1667 64.2117 59.1667 64.5469V65.7656ZM59.1667 58.4531C59.1667 58.7883 58.8948 59.0625 58.5625 59.0625H47.6875C47.3552 59.0625 47.0833 58.7883 47.0833 58.4531V57.2344C47.0833 56.8992 47.3552 56.625 47.6875 56.625H58.5625C58.8948 56.625 59.1667 56.8992 59.1667 57.2344V58.4531Z" fill="#FF613D"/>
<path d="M49.5 23C55.8513 23 61 17.8513 61 11.5C61 5.14873 55.8513 0 49.5 0C43.1487 0 38 5.14873 38 11.5C38 17.8513 43.1487 23 49.5 23Z" fill="#FF613D"/>
<path d="M48.2754 12.8096C48.2754 14.2406 48.0065 15.3206 47.4688 16.0498C46.9355 16.7744 46.1221 17.1367 45.0283 17.1367C43.9528 17.1367 43.1416 16.7835 42.5947 16.0771C42.0524 15.3662 41.7744 14.3158 41.7607 12.9258V11.2031C41.7607 9.77214 42.0273 8.69889 42.5605 7.9834C43.0983 7.2679 43.9163 6.91016 45.0146 6.91016C46.1038 6.91016 46.915 7.25879 47.4482 7.95605C47.986 8.65332 48.2617 9.69694 48.2754 11.0869V12.8096ZM46.6143 10.9502C46.6143 10.016 46.4867 9.33236 46.2314 8.89941C45.9762 8.46191 45.5706 8.24316 45.0146 8.24316C44.4723 8.24316 44.0736 8.45052 43.8184 8.86523C43.5632 9.27539 43.4287 9.91797 43.415 10.793V13.0488C43.415 13.9785 43.5449 14.6712 43.8047 15.127C44.0645 15.5827 44.4723 15.8105 45.0283 15.8105C45.5615 15.8105 45.9557 15.6009 46.2109 15.1816C46.4661 14.7578 46.6006 14.097 46.6143 13.1992V10.9502ZM54.2432 17H52.5889V9.00879L50.1484 9.84277V8.44141L54.0312 7.0127H54.2432V17Z" fill="white"/>
</svg>
