<svg width="99" height="111" viewBox="0 0 99 111" fill="none" xmlns="http://www.w3.org/2000/svg">
<path d="M49.5 110.5C76.562 110.5 98.5 88.562 98.5 61.5C98.5 34.438 76.562 12.5 49.5 12.5C22.438 12.5 0.5 34.438 0.5 61.5C0.5 88.562 22.438 110.5 49.5 110.5Z" fill="white" stroke="#FF613D"/>
<path d="M49.2494 59.6784C49.6626 60.112 50.3355 60.112 50.7546 59.6784L57.1823 52.9873C59.0475 51.042 58.9413 47.8195 56.8518 46.0266C55.0339 44.4622 52.3246 44.7435 50.6601 46.4778L49.9991 47.1633L49.3439 46.4836C47.6794 44.7435 44.9702 44.4622 43.1522 46.0266C41.0687 47.8195 40.9565 51.042 42.8217 52.9873L49.2494 59.6784ZM66.3666 64.2251C65.6701 63.5981 64.584 63.6392 63.8521 64.2251L58.3983 68.555C57.7313 69.0881 56.899 69.3752 56.0373 69.3752H49.0547C48.5353 69.3752 48.1103 68.9534 48.1103 68.4378C48.1103 67.9222 48.5353 67.5003 49.0547 67.5003H53.6763C54.6148 67.5003 55.4883 66.8617 55.6418 65.9418C55.8366 64.77 54.9276 63.7505 53.7766 63.7505H44.3327C42.739 63.7505 41.1985 64.2954 39.959 65.2914L37.2144 67.5003H33.9444C33.425 67.5003 33 67.9222 33 68.4378V74.0625C33 74.5781 33.425 75 33.9444 75H55.0043C55.8602 75 56.6924 74.7129 57.3653 74.1797L66.2898 67.0902C67.187 66.3812 67.2578 65.0219 66.3666 64.2251Z" fill="#FF613D"/>
<path d="M49.5 22.5C55.5751 22.5 60.5 17.5751 60.5 11.5C60.5 5.42487 55.5751 0.5 49.5 0.5C43.4249 0.5 38.5 5.42487 38.5 11.5C38.5 17.5751 43.4249 22.5 49.5 22.5Z" fill="#FF613D" stroke="#FF613D"/>
<path d="M48.2754 12.8096C48.2754 14.2406 48.0065 15.3206 47.4688 16.0498C46.9355 16.7744 46.1221 17.1367 45.0283 17.1367C43.9528 17.1367 43.1416 16.7835 42.5947 16.0771C42.0524 15.3662 41.7744 14.3158 41.7607 12.9258V11.2031C41.7607 9.77214 42.0273 8.69889 42.5605 7.9834C43.0983 7.2679 43.9163 6.91016 45.0146 6.91016C46.1038 6.91016 46.915 7.25879 47.4482 7.95605C47.986 8.65332 48.2617 9.69694 48.2754 11.0869V12.8096ZM46.6143 10.9502C46.6143 10.016 46.4867 9.33236 46.2314 8.89941C45.9762 8.46191 45.5706 8.24316 45.0146 8.24316C44.4723 8.24316 44.0736 8.45052 43.8184 8.86523C43.5632 9.27539 43.4287 9.91797 43.415 10.793V13.0488C43.415 13.9785 43.5449 14.6712 43.8047 15.127C44.0645 15.5827 44.4723 15.8105 45.0283 15.8105C45.5615 15.8105 45.9557 15.6009 46.2109 15.1816C46.4661 14.7578 46.6006 14.097 46.6143 13.1992V10.9502ZM55.3643 13.4521H56.6016V14.7852H55.3643V17H53.7031V14.7852H49.4033L49.3555 13.7734L53.6484 7.04688H55.3643V13.4521ZM51.0986 13.4521H53.7031V9.2959L53.5801 9.51465L51.0986 13.4521Z" fill="white"/>
</svg>
