<svg width="99" height="111" viewBox="0 0 99 111" fill="none" xmlns="http://www.w3.org/2000/svg">
<path d="M49.5 110.5C76.562 110.5 98.5 88.562 98.5 61.5C98.5 34.438 76.562 12.5 49.5 12.5C22.438 12.5 0.5 34.438 0.5 61.5C0.5 88.562 22.438 110.5 49.5 110.5Z" fill="white" stroke="#FF613D"/>
<path d="M66.9481 60.4565L63.6575 57.192C62.9825 56.5223 62.0656 56.1484 61.1094 56.1484H59V50.7857C59 49.798 58.1956 49 57.2 49H33.8C32.8044 49 32 49.798 32 50.7857V69.5357C32 72.0022 34.0137 74 36.5 74C37.9794 74 39.2787 73.2801 40.1 72.192C40.9212 73.2857 42.2206 74 43.7 74C46.1862 74 48.2 72.0022 48.2 69.5357C48.2 69.2288 48.1662 68.933 48.11 68.6429H57.29C57.2281 68.933 57.2 69.2288 57.2 69.5357C57.2 72.0022 59.2137 74 61.7 74C64.1862 74 66.2 72.0022 66.2 69.5357C66.2 69.2288 66.1663 68.933 66.11 68.6429H67.1C67.595 68.6429 68 68.2411 68 67.75V62.9788C68 62.0301 67.6231 61.1261 66.9481 60.4565ZM36.5 71.3214C35.51 71.3214 34.7 70.5179 34.7 69.5357C34.7 68.5536 35.51 67.75 36.5 67.75C37.49 67.75 38.3 68.5536 38.3 69.5357C38.3 70.5179 37.49 71.3214 36.5 71.3214ZM43.7 71.3214C42.71 71.3214 41.9 70.5179 41.9 69.5357C41.9 68.5536 42.71 67.75 43.7 67.75C44.69 67.75 45.5 68.5536 45.5 69.5357C45.5 70.5179 44.69 71.3214 43.7 71.3214ZM59 58.8214H61.1094C61.3512 58.8214 61.5762 58.9163 61.745 59.0837L64.1806 61.5H59V58.8214ZM61.7 71.3214C60.71 71.3214 59.9 70.5179 59.9 69.5357C59.9 68.5536 60.71 67.75 61.7 67.75C62.69 67.75 63.5 68.5536 63.5 69.5357C63.5 70.5179 62.69 71.3214 61.7 71.3214Z" fill="#FF613D"/>
<path d="M49.5 23C55.8513 23 61 17.8513 61 11.5C61 5.14873 55.8513 0 49.5 0C43.1487 0 38 5.14873 38 11.5C38 17.8513 43.1487 23 49.5 23Z" fill="#FF613D"/>
<path d="M48.2754 12.8096C48.2754 14.2406 48.0065 15.3206 47.4688 16.0498C46.9355 16.7744 46.1221 17.1367 45.0283 17.1367C43.9528 17.1367 43.1416 16.7835 42.5947 16.0771C42.0524 15.3662 41.7744 14.3158 41.7607 12.9258V11.2031C41.7607 9.77214 42.0273 8.69889 42.5605 7.9834C43.0983 7.2679 43.9163 6.91016 45.0146 6.91016C46.1038 6.91016 46.915 7.25879 47.4482 7.95605C47.986 8.65332 48.2617 9.69694 48.2754 11.0869V12.8096ZM46.6143 10.9502C46.6143 10.016 46.4867 9.33236 46.2314 8.89941C45.9762 8.46191 45.5706 8.24316 45.0146 8.24316C44.4723 8.24316 44.0736 8.45052 43.8184 8.86523C43.5632 9.27539 43.4287 9.91797 43.415 10.793V13.0488C43.415 13.9785 43.5449 14.6712 43.8047 15.127C44.0645 15.5827 44.4723 15.8105 45.0283 15.8105C45.5615 15.8105 45.9557 15.6009 46.2109 15.1816C46.4661 14.7578 46.6006 14.097 46.6143 13.1992V10.9502ZM51.666 11.2646H52.6777C53.1882 11.2601 53.5915 11.1279 53.8877 10.8682C54.1885 10.6084 54.3389 10.2324 54.3389 9.74023C54.3389 9.26628 54.2135 8.89941 53.9629 8.63965C53.7168 8.37533 53.3385 8.24316 52.8281 8.24316C52.3815 8.24316 52.0146 8.37305 51.7275 8.63281C51.4404 8.88802 51.2969 9.22298 51.2969 9.6377H49.6357C49.6357 9.12728 49.7702 8.66243 50.0391 8.24316C50.3125 7.82389 50.6908 7.49805 51.1738 7.26562C51.6615 7.02865 52.2061 6.91016 52.8076 6.91016C53.8011 6.91016 54.5804 7.16081 55.1455 7.66211C55.7152 8.15885 56 8.85156 56 9.74023C56 10.1868 55.8564 10.6084 55.5693 11.0049C55.2868 11.3968 54.9199 11.693 54.4688 11.8936C55.0156 12.0804 55.4303 12.3743 55.7129 12.7754C56 13.1764 56.1436 13.6549 56.1436 14.2109C56.1436 15.1042 55.8359 15.8151 55.2207 16.3438C54.61 16.8724 53.8057 17.1367 52.8076 17.1367C51.8506 17.1367 51.0667 16.8815 50.4561 16.3711C49.8454 15.8607 49.54 15.1816 49.54 14.334H51.2012C51.2012 14.7715 51.347 15.127 51.6387 15.4004C51.9349 15.6738 52.3314 15.8105 52.8281 15.8105C53.3431 15.8105 53.7487 15.6738 54.0449 15.4004C54.3411 15.127 54.4893 14.7305 54.4893 14.2109C54.4893 13.6868 54.3343 13.2835 54.0244 13.001C53.7145 12.7184 53.2542 12.5771 52.6436 12.5771H51.666V11.2646Z" fill="white"/>
</svg>
