<svg width="99" height="111" viewBox="0 0 99 111" fill="none" xmlns="http://www.w3.org/2000/svg">
<path d="M49.5 110.5C76.562 110.5 98.5 88.562 98.5 61.5C98.5 34.438 76.562 12.5 49.5 12.5C22.438 12.5 0.5 34.438 0.5 61.5C0.5 88.562 22.438 110.5 49.5 110.5Z" fill="white" stroke="#FF613D"/>
<path d="M56.2724 63.502C55.1898 63.502 54.1713 62.9194 53.6204 61.9873L49.5014 55.0871L45.3889 61.9873C44.8316 62.9259 43.813 63.5085 42.7304 63.5085C42.4422 63.5085 42.1539 63.4696 41.8785 63.3855L33.1025 60.8481V72.3701C33.1025 73.3216 33.743 74.1502 34.6527 74.3767L48.5021 77.8786C49.1555 78.0405 49.8409 78.0405 50.4879 77.8786L64.3502 74.3767C65.2598 74.1437 65.9004 73.3151 65.9004 72.3701V60.8481L57.1244 63.379C56.8489 63.4632 56.5607 63.502 56.2724 63.502ZM69.8912 56.2393L66.5922 49.585C66.3936 49.1836 65.9644 48.9506 65.5224 49.0089L49.5014 51.0738L55.3756 60.9193C55.619 61.3271 56.1058 61.5213 56.5607 61.3918L69.2378 57.7345C69.872 57.5468 70.1795 56.8348 69.8912 56.2393ZM32.4106 49.585L29.1116 56.2393C28.8169 56.8348 29.1308 57.5468 29.7586 57.7281L42.4358 61.3853C42.8906 61.5148 43.3774 61.3206 43.6209 60.9128L49.5014 51.0738L33.474 49.0089C33.032 48.9571 32.6092 49.1836 32.4106 49.585Z" fill="#FF613D"/>
<path d="M49.5 23C55.8513 23 61 17.8513 61 11.5C61 5.14873 55.8513 0 49.5 0C43.1487 0 38 5.14873 38 11.5C38 17.8513 43.1487 23 49.5 23Z" fill="#FF613D"/>
<path d="M48.2754 12.8096C48.2754 14.2406 48.0065 15.3206 47.4688 16.0498C46.9355 16.7744 46.1221 17.1367 45.0283 17.1367C43.9528 17.1367 43.1416 16.7835 42.5947 16.0771C42.0524 15.3662 41.7744 14.3158 41.7607 12.9258V11.2031C41.7607 9.77214 42.0273 8.69889 42.5605 7.9834C43.0983 7.2679 43.9163 6.91016 45.0146 6.91016C46.1038 6.91016 46.915 7.25879 47.4482 7.95605C47.986 8.65332 48.2617 9.69694 48.2754 11.0869V12.8096ZM46.6143 10.9502C46.6143 10.016 46.4867 9.33236 46.2314 8.89941C45.9762 8.46191 45.5706 8.24316 45.0146 8.24316C44.4723 8.24316 44.0736 8.45052 43.8184 8.86523C43.5632 9.27539 43.4287 9.91797 43.415 10.793V13.0488C43.415 13.9785 43.5449 14.6712 43.8047 15.127C44.0645 15.5827 44.4723 15.8105 45.0283 15.8105C45.5615 15.8105 45.9557 15.6009 46.2109 15.1816C46.4661 14.7578 46.6006 14.097 46.6143 13.1992V10.9502ZM56.4375 17H49.7451V15.8584L53.0605 12.2422C53.5391 11.709 53.8786 11.2646 54.0791 10.9092C54.2842 10.5492 54.3867 10.1891 54.3867 9.8291C54.3867 9.35514 54.2523 8.97233 53.9834 8.68066C53.7191 8.389 53.3613 8.24316 52.9102 8.24316C52.3724 8.24316 51.9554 8.40723 51.6592 8.73535C51.363 9.06348 51.2148 9.51237 51.2148 10.082H49.5537C49.5537 9.47591 49.6904 8.93132 49.9639 8.44824C50.2419 7.96061 50.6361 7.58236 51.1465 7.31348C51.6615 7.0446 52.2539 6.91016 52.9238 6.91016C53.89 6.91016 54.651 7.15397 55.207 7.6416C55.7676 8.12467 56.0479 8.7946 56.0479 9.65137C56.0479 10.1481 55.9066 10.6699 55.624 11.2168C55.346 11.7591 54.888 12.3766 54.25 13.0693L51.8164 15.6738H56.4375V17Z" fill="white"/>
</svg>
